<svg id="Layer_1" data-name="Layer 1" xmlns="http://www.w3.org/2000/svg" viewBox="0 0 64 64"><defs><style>.cls-1,.cls-2,.cls-5,.cls-6{fill:none;}.cls-1,.cls-2,.cls-3,.cls-5,.cls-6{stroke:#000;}.cls-1,.cls-2,.cls-3,.cls-5{stroke-miterlimit:10;}.cls-1{stroke-width:4px;}.cls-2{stroke-width:3px;}.cls-4{fill:#fff;}.cls-5{stroke-width:2px;}.cls-6{stroke-linecap:round;stroke-linejoin:round;}</style></defs><title>liona</title><path class="cls-1" d="M54.84,25.94v0Z"/><path class="cls-1" d="M12.22,38.12a21.33,21.33,0,0,1,0,2.4c-.24,4.39-3.11,7.12-1.94,12.29.09.41.48.79.62,1.29,2.74,9.32,15.61,10,20.83,6.58S40.9,54.26,42.84,53c8.06-5.46,11.59-7.39,13-14.72a11.14,11.14,0,0,0,.09-3.41L54.84,26h0v0a1.36,1.36,0,0,0,0-.3,26.32,26.32,0,0,1-.57-5.47c0-2.49.27-6.67.27-8.67,0-4-7-9-14.45-5.92a2.07,2.07,0,0,1-.45,0h-.14A35,35,0,0,0,28.52,8.52a1.5,1.5,0,0,1-1.4-.15s0,0,0,0C24.93,6.9,22.61,5.5,20.45,4.12a6.1,6.1,0,0,1-.67-.48,9.19,9.19,0,0,0-2.83-2,1.16,1.16,0,0,0-1.08.19c-5.79,5.37-3.41,10.91.46,16.41.58.82.31,1,.16,1.3a66.87,66.87,0,0,0-4.6,9.45.93.93,0,0,0-.08.2c-.48,3.31.24,5.83.41,9"/><path class="cls-2" d="M21.06,48.09c-3.16-.35-6.49-.52-9.47.6-1.33.49-1.47,1.77-1.38,3a2.24,2.24,0,0,0,.1.39,13.47,13.47,0,0,0,.51,1.47C14.73,62.09,23,65.65,31.41,60.84a1.85,1.85,0,0,0,.82-1.91,14.59,14.59,0,0,0-.46-2,5.37,5.37,0,0,0-2.36-3.11c-2.15-1.25-4.21-2.05-6.27-3.36a1.87,1.87,0,0,1-.73-1v0A1.71,1.71,0,0,0,21.06,48.09Z"/><path class="cls-2" d="M54.29,14.22c.05,5.67,1.9,9-8.17,8-4.91-.49-7.83-4-7.18-8.88s3.17-9,8.46-8.27C51.27,5.58,54.23,8.55,54.29,14.22Z"/><path d="M52.14,15.92c0-3.22-1.93-4.82-4.08-5.15-2.93-.46-4.35,1.94-4.66,4.55a4.3,4.3,0,0,0,4,4.95C52.72,20.86,52.18,19.14,52.14,15.92Zm-3.68,3.69a2.87,2.87,0,0,1-2.65-3.29C46,14.59,47,13,48.9,13.3a3.17,3.17,0,0,1,2.71,3.42C51.65,18.85,52,20,48.46,19.61Z"/><path d="M15.36,52.47A4.75,4.75,0,0,1,16,53c0,.2.1.4.15.6l.29,1.22.3,1.21.14.6a5.17,5.17,0,0,1-.33.73,7.12,7.12,0,0,1-.64-.49l-.15-.61L15.46,55l-.29-1.2c-.05-.21-.1-.41-.16-.61A4.81,4.81,0,0,1,15.36,52.47Z"/><path class="cls-3" d="M11.09,48.92c2.72-.18,6-.3,8.73-.35.64,0,.88.41.45.81C19,50.58,17.35,51.94,16,53.17a.55.55,0,0,1-.8,0c-1.41-1.08-3.11-2.33-4.45-3.43C10.33,49.4,10.46,49,11.09,48.92Z"/><path class="cls-4" d="M35.4,33.8a3,3,0,0,1-3,3.14,3.22,3.22,0,0,1-3.35-3,3,3,0,0,1,3.07-3.13A3.17,3.17,0,0,1,35.4,33.8Z"/><path class="cls-5" d="M35.4,33.48a2.83,2.83,0,0,1-2.9,3,3.06,3.06,0,0,1-3.18-2.87,2.82,2.82,0,0,1,2.92-3A3,3,0,0,1,35.4,33.48Z"/><path class="cls-4" d="M12,32.11a1.17,1.17,0,0,0-.09.42,3.71,3.71,0,0,0,2.63,3.85,3.39,3.39,0,0,0,1.1.21c.56,0,1.15-.32,1.08-.89a5.4,5.4,0,0,0-2.8-4.33A1.34,1.34,0,0,0,12,32.11Z"/><path class="cls-5" d="M12.41,31.74a1.36,1.36,0,0,0-.09.42,4,4,0,0,0,3.77,4.07c.57,0,1.15-.33,1.08-.9A5.45,5.45,0,0,0,14.34,31,1.34,1.34,0,0,0,12.41,31.74Z"/><path class="cls-6" d="M14.71,59.06c.41-.53.83-1.17,1.24-1.66a.78.78,0,0,1,1-.26c.57.18,1.33.61,1.89.78A6.3,6.3,0,0,0,24,57.7c1.56-.72,3.54-1.82,5.15-2.61"/></svg>